<svg xmlns="http://www.w3.org/2000/svg" viewBox="0 0 1013.2 215.4">
  <path fill="#10498A" d="M67 79.4c-8 0-16 4.8-18.4 12.5-1.8 6.5-.6 13.3-1 20 .2 3.8-.4 8.3 2.8 11 1 1.2 2.3 2 3.8 2.7.2 10.3-.6 20.6.5 30.9 1.4 5.2 6.7 9 12.1 8.6 4.6.2 9.5.4 14-1 3.9-1.8 7.1-5.8 6.7-10.3.6-9.3 0-18.7.5-28 4.6-1.4 7.5-6.4 7-11-.3-8 1.1-16.2-1.4-24a18.6 18.6 0 00-17-11.2c-3.2-.2-6.4-.2-9.7-.2zm4.4 7.8c4.5 0 9.8-.3 13 3.5 4.3 4.3 2.6 10.7 3 16.1 0 3.6.4 7.4-.7 10.7-1.7 1.7-4.3 1-6.4 1.3-.3 12 .5 24.3-.6 36.4-1.7 3.3-6 2.3-9 2.4-3.3.3-8.1.3-8.7-3.8-.3-11.7-.2-23.5-.2-35.3-3 1.1-7.5-.9-6.9-4.5.3-6.5-.2-13 .8-19.3 1.7-4.9 7-8.1 12-7.5h3.7z"/>
  <path fill="#10498A" d="M32.2 88.7c-5.6 1-9.6 5.5-13.7 9a57.3 57.3 0 00-18 43.6 53.4 53.4 0 005.5 25 60.7 60.7 0 0039.5 32c2.6 1.1 4.1 3.7 6.6 5.1 8.6 6.5 19 11 30 11.3a55 55 0 0031.1-6.6 41.2 41.2 0 0015-12.7c2.3-5-.7-11.5-6-13-6.3-3-12.3-7-19.2-8.5-6-.3-10 5.3-14.5 8.2a50 50 0 01-37.4 8.5c-2.2-2-3.6-5-5.4-7.5a42.1 42.1 0 01-6.8-24.5c-.2-5.4.6-10.8 2.1-15.9.6-3-2.5-5.8-5.4-4.7-3.9 1.7-3.9 6.7-4.8 10.2a57.9 57.9 0 006.2 37.6 51.2 51.2 0 01-28.1-45 52 52 0 0125.5-44.3c2.7-1.8 2.5-6.3-.7-7.5-.4-.2-1-.3-1.5-.3zm72.2 94.8c5.4 2.5 11.1 4.7 15.8 8.4a47.4 47.4 0 01-57.5 8 60 60 0 0037.2-15.5c1.4-1.2 2.7-2.4 4.5-1zM54.4.6C39.5.9 24.8 7.6 15 18.8c-3.2 4.4-1.4 11.2 3.6 13.3 6.3 3.7 12.7 7.1 19.6 9.4 5.2.9 9.6-2.8 13-6A49.9 49.9 0 0191 24.8a46.5 46.5 0 0111 19.3c2.6 9.3 2 19.3-.5 28.5-.6 2.6 1.4 5.3 4.2 5 3.8-.2 4.7-4.9 5.4-8 3-13.4 1-27.9-5.6-40a50.5 50.5 0 0110.8 83.2c-2.9 2.8-6.2 4.7-9.2 7-2.6 2.9.6 8.1 4.3 6.7 4.7-1.3 8-5.2 11.8-8.1a59.1 59.1 0 00-22.4-100 26 26 0 01-10.5-6.6A51.2 51.2 0 0060.5 1c-2-.2-4-.3-6.1-.3zm1.8 8.7c8.2 0 16.5 2.2 23.6 6.3a59.4 59.4 0 00-37.5 15.8c-1.2 1-2.7 2.3-4.1.8-5.4-2.6-11.4-4.8-16-8.6 8.8-9 21.4-14.5 34-14.3z"/>
  <path fill="#10498A" d="M70.7 45.8c-8-.2-14.8 7.8-13.5 15.7.5 8.9 11 15.2 19.2 11.7 5.7-2 9.6-8 9-14 .1-7.4-6.9-14-14.4-13.4zm.7 7.5c5.7-.2 8.6 8 4.3 11.5-3.3 3-9.2 1.6-10.6-2.7-1.8-4.3 1.8-9 6.3-8.8zM233.7 33.2a1.6 1.6 0 00-1.7 1.5L228 78a1.6 1.6 0 001.7 1.8h19.7c6.5 0 11 1 13 2.3 2.4 1.4 3.4 3.2 3.4 6s-1 4.6-3.2 6.1a17 17 0 01-9.6 2.4c-3.9 0-7.7-.6-11.3-1.7a33 33 0 01-9.7-5 1.6 1.6 0 00-2.4.6l-7 13.7a1.6 1.6 0 00.4 2c3.9 2.9 8.5 5 13.9 6.5 5.4 1.4 11 2.2 16.5 2.2 7.3 0 13.4-1.2 18.5-3.6 5-2.5 9-5.8 11.5-10 2.5-4 3.7-8.7 3.7-13.7 0-7.6-2.8-14-8.4-18.6-5.5-4.7-14-7-25-7H249l1-11.3h30.7a1.6 1.6 0 001.6-1.7V34.8a1.6 1.6 0 00-1.6-1.6zm95.2 0a1.6 1.6 0 00-1.6 1.6V112a1.6 1.6 0 001.6 1.6h17.8a1.6 1.6 0 001.6-1.6V93l8.7-9 23.5 29a1.6 1.6 0 001.3.5h20.8a1.6 1.6 0 001.3-2.6l-33-41.7 31-33.4a1.6 1.6 0 00-1.2-2.7H381a1.6 1.6 0 00-1.2.5l-31.4 33V34.9a1.6 1.6 0 00-1.6-1.6zm81.7 0a1.6 1.6 0 00-1.7 1.6V112a1.6 1.6 0 001.7 1.6h16.7a1.6 1.6 0 001.7-1.6V72.5l19.5 32.2a1.6 1.6 0 001.4.8h8.1a1.6 1.6 0 001.4-.8l19.7-33.1V112a1.6 1.6 0 001.7 1.6h16.8a1.6 1.6 0 001.6-1.6l-.2-77.2a1.6 1.6 0 00-1.6-1.6h-14.7a1.6 1.6 0 00-1.4.8l-27 45.6L426.7 34a1.6 1.6 0 00-1.4-.8zm136.5 0a1.6 1.6 0 00-1.6 1.6V112a1.6 1.6 0 001.6 1.6h17.7a1.6 1.6 0 001.6-1.6V69.7L602 113a1.6 1.6 0 001.3.6h14.6a1.6 1.6 0 001.7-1.6V34.8a1.6 1.6 0 00-1.7-1.6h-17.6a1.6 1.6 0 00-1.7 1.6v42.3l-35.4-43.3a1.6 1.6 0 00-1.3-.6zm113.5 0a1.6 1.6 0 00-1.5 1l-34.4 77.1a1.6 1.6 0 001.5 2.3h18.3a1.6 1.6 0 001.5-1l6.4-15.5H686l6.5 15.5a1.6 1.6 0 001.5 1h18.7a1.6 1.6 0 001.5-2.3l-34.5-77.2a1.6 1.6 0 00-1.5-1zm60.1 0a1.6 1.6 0 00-1.6 1.6V112a1.6 1.6 0 001.6 1.6h35.1a51 51 0 0022.9-4.9A37.6 37.6 0 00800 73.4c0-8-1.9-15-5.6-21.1-3.7-6.1-9-10.8-15.7-14.1-6.7-3.4-14.3-5-22.9-5zm86.2 0a1.6 1.6 0 00-1.6 1.6v14.6a1.6 1.6 0 001.6 1.6h38l-40.1 48.4a1.6 1.6 0 00-.4 1V112a1.6 1.6 0 001.6 1.6h67.5a1.6 1.6 0 001.6-1.6V97.4a1.6 1.6 0 00-1.6-1.6h-40.4l40-48.4a1.6 1.6 0 00.4-1V34.8a1.6 1.6 0 00-1.7-1.6zm78.2 0a1.6 1.6 0 00-1.7 1.6V112a1.6 1.6 0 001.7 1.6h17.8a1.6 1.6 0 001.7-1.6V34.8a1.6 1.6 0 00-1.7-1.6zm36.1 0a1.6 1.6 0 00-1.6 1.6V112a1.6 1.6 0 001.7 1.6H981a1.6 1.6 0 001.7-1.6V97.7A1.6 1.6 0 00981 96h-40.4V81.4h34.2a1.6 1.6 0 001.7-1.6V65.9a1.6 1.6 0 00-1.7-1.6h-34.2V50.8h39a1.6 1.6 0 001.6-1.7V34.8a1.6 1.6 0 00-1.6-1.6zm74.1 0a1.6 1.6 0 00-1.6 1.6V112a1.6 1.6 0 001.6 1.6h18a1.6 1.6 0 001.5-1.6V34.8a1.6 1.6 0 00-1.6-1.6zM740.3 51h14.6c7.4 0 13 2 17.3 6 4.3 4 6.4 9.3 6.4 16.3a21 21 0 01-6.4 16.3c-4.2 4-9.9 6-17.3 6h-14.7zm-71 5.5l9.8 23.6h-19.6zM300.2 155.5c-2.5 0-4.8.6-6.8 1.7a12.1 12.1 0 00-6.5 11 12.5 12.5 0 006.5 11.2c2 1 4.3 1.6 6.8 1.6a17 17 0 005.2-.8c1.6-.6 3.1-1.3 4.4-2.3a.4.4 0 00.2-.4V168a.4.4 0 00-.5-.4h-4.2a.4.4 0 00-.4.4v7.2a9.3 9.3 0 01-4.5 1c-1.6 0-3-.3-4.3-1a7.7 7.7 0 01-4-7c0-1.5.4-3 1-4.1a7.5 7.5 0 013-2.8 9 9 0 014.3-1c2.5 0 4.6.8 6.4 2.6a.4.4 0 00.5 0l2.8-2.8a.4.4 0 000-.5 11.2 11.2 0 00-4.2-3 15 15 0 00-5.7-1zm159.3 0a14 14 0 00-6.8 1.7 12.5 12.5 0 00-6.5 11c0 2.4.6 4.6 1.7 6.6 1.2 2 2.8 3.5 4.8 4.6 2 1 4.3 1.6 6.8 1.6s4.8-.6 6.8-1.6a12.4 12.4 0 006.5-11.1 12.1 12.1 0 00-6.5-11 14 14 0 00-6.8-1.8zm27.4 0c-2.1 0-4 .3-5.5 1a7.8 7.8 0 00-3.4 2.8 6.8 6.8 0 00-1.1 3.8c0 1.6.4 3 1.3 4a8 8 0 003 2.2l4.6 1.3 3 .8c.7.2 1.3.6 1.7 1 .4.4.6.8.6 1.4 0 .8-.3 1.4-1.1 1.9a7 7 0 01-3.8.8 13.2 13.2 0 01-7.6-2.6.4.4 0 00-.7.2l-1.5 3.4a.4.4 0 00.1.5c1 1 2.5 1.6 4.2 2.2 1.8.5 3.6.8 5.5.8 2.2 0 4-.3 5.5-1a7.6 7.6 0 003.5-2.7 6.7 6.7 0 001.1-3.8c0-1.7-.4-3-1.3-4s-1.9-1.7-3-2.1a31 31 0 00-4.5-1.4l-3-.8c-.8-.2-1.4-.6-1.8-1-.4-.3-.6-.7-.6-1.3 0-.9.3-1.5 1.1-2 .8-.6 2-.9 3.7-.9a13.4 13.4 0 016.4 1.8.4.4 0 00.6-.1l1.4-3.5a.4.4 0 00-.2-.5c-1-.7-2.3-1.2-3.7-1.6-1.5-.4-3-.6-4.5-.6zm65 0c-2.5 0-4.7.6-6.8 1.7a12.2 12.2 0 00-6.4 11 12.4 12.4 0 006.4 11.1c2 1.1 4.3 1.7 6.8 1.7 2 0 3.8-.4 5.5-1 1.7-.8 3.1-1.8 4.3-3.2a.4.4 0 000-.5l-3-2.8a.4.4 0 00-.5 0 7.9 7.9 0 01-6 2.8c-1.7 0-3-.4-4.3-1a7.5 7.5 0 01-2.9-2.9c-.7-1.2-1-2.6-1-4.1 0-1.6.3-3 1-4.2a7.2 7.2 0 012.9-2.8c1.2-.7 2.6-1 4.2-1a8 8 0 016.1 2.6.4.4 0 00.6 0l2.9-2.7a.4.4 0 000-.5 11.4 11.4 0 00-4.3-3.1 14 14 0 00-5.5-1zm-327.7.4a.4.4 0 00-.4.4v24a.4.4 0 00.4.3H236c3.1 0 5.5-.5 7.2-1.7a6 6 0 002.6-5.2c0-1.5-.4-2.9-1.3-4a6.6 6.6 0 00-2.7-2 6 6 0 001.9-1.8c.6-1 .9-2.1.9-3.4 0-2-.9-3.7-2.5-4.9a11.3 11.3 0 00-6.8-1.7zm27.7 0a.4.4 0 00-.4.4v24a.4.4 0 00.4.3h4.5a.4.4 0 00.4-.4v-24a.4.4 0 00-.4-.3zm12.6 0a.4.4 0 00-.4.4v24a.4.4 0 00.4.3h18a.4.4 0 00.4-.4v-3.7a.4.4 0 00-.4-.4h-13.1v-5.8h11.1a.4.4 0 00.4-.4v-3.7a.4.4 0 00-.4-.4h-11.1v-5.4H282a.4.4 0 00.4-.4v-3.7a.4.4 0 00-.4-.4zm63.7 0a.4.4 0 00-.4.4v24a.4.4 0 00.4.3h10.4c2.6 0 5-.5 7-1.5s3.7-2.5 4.8-4.3c1.1-2 1.7-4.1 1.7-6.5 0-2.5-.6-4.6-1.7-6.5a11.3 11.3 0 00-4.8-4.4c-2-1-4.4-1.5-7-1.5zm30 0a.4.4 0 00-.5.4v24a.4.4 0 00.4.3h17a.4.4 0 00.4-.4v-3.7a.4.4 0 00-.4-.4H363v-19.8a.4.4 0 00-.4-.4zm29.7 0a.4.4 0 00-.4.2l-10.8 24a.4.4 0 00.4.5h4.6a.4.4 0 00.4-.2l2.2-5.3h11.5l2.3 5.3a.4.4 0 00.3.2h4.7a.4.4 0 00.4-.5l-10.8-24a.4.4 0 00-.4-.2zm31 0a.4.4 0 00-.4.4v24a.4.4 0 00.4.3h4.4a.4.4 0 00.4-.4v-9.8h11.6v9.8a.4.4 0 00.4.4h4.5a.4.4 0 00.4-.4v-24a.4.4 0 00-.4-.3h-4.5a.4.4 0 00-.4.4v9.5h-11.6v-9.5a.4.4 0 00-.4-.4zm83.1 0a.4.4 0 00-.4.4v24a.4.4 0 00.4.3h4.4a.4.4 0 00.5-.4v-6.5h5c2 0 4-.3 5.5-1a8.3 8.3 0 003.8-3.1c.8-1.4 1.3-3 1.3-4.8 0-1.8-.5-3.4-1.3-4.8a8.3 8.3 0 00-3.8-3c-1.6-.8-3.4-1.1-5.5-1.1zm26.2 0a.4.4 0 00-.4.4v24a.4.4 0 00.4.3h4.5a.4.4 0 00.4-.4v-24a.4.4 0 00-.4-.3zm38 0a.4.4 0 00-.4.4v3.7a.4.4 0 00.4.4h8v12c0 1.4-.2 2.4-.8 3-.5.7-1.3 1-2.4 1-1.8 0-3.2-.8-4.5-2.6a.4.4 0 00-.6 0l-2.6 3a.4.4 0 000 .6c.9 1.1 2 2 3.3 2.7 1.4.6 2.9.9 4.5.9 2.7 0 4.8-.7 6.3-2.2 1.4-1.5 2.1-3.8 2.1-6.6v-16a.4.4 0 00-.4-.3zm20.6 0a.4.4 0 00-.4.4v13.5c0 3.5 1 6.3 3 8.3 1.9 2 4.6 2.9 8 2.9 3.3 0 6-1 8-3 1.9-1.9 2.8-4.7 2.8-8.2v-13.5a.4.4 0 00-.4-.4h-4.4a.4.4 0 00-.4.4v13.3c0 2.3-.5 4-1.4 5-.9 1.1-2.3 1.7-4.2 1.7-2 0-3.4-.6-4.3-1.6-1-1.1-1.4-2.8-1.4-5v-13.4a.4.4 0 00-.4-.4zm29 0a.4.4 0 00-.5.4v24a.4.4 0 00.4.3h4.3a.4.4 0 00.4-.4V166l7.1 11.7a.4.4 0 00.3.2h2a.4.4 0 00.4-.2l7.1-11.9v14.4a.4.4 0 00.4.4h4.3a.4.4 0 00.4-.4v-24a.4.4 0 00-.5-.3h-3.6a.4.4 0 00-.4.2l-9 15.3-9.2-15.3a.4.4 0 00-.3-.2zm45.4 0a.4.4 0 00-.4.4v24a.4.4 0 00.4.3h4.4a.4.4 0 00.5-.4v-24a.4.4 0 00-.5-.3zm12.6 0a.4.4 0 00-.4.4v24a.4.4 0 00.4.3h4.2a.4.4 0 00.4-.4V166l7.1 11.7a.4.4 0 00.4.2h2a.4.4 0 00.3-.2l7.1-11.9v14.4a.4.4 0 00.5.4h4.2a.4.4 0 00.4-.4v-24a.4.4 0 00-.4-.3h-3.7a.4.4 0 00-.4.2l-9 15.3-9.1-15.3a.4.4 0 00-.4-.2zm54.3 0a.4.4 0 00-.4.4v3.7a.4.4 0 00.4.4h8.1v12c0 1.4-.3 2.4-.8 3-.6.7-1.3 1-2.5 1-1.7 0-3.2-.8-4.4-2.6a.4.4 0 00-.7 0l-2.5 3a.4.4 0 000 .6c.8 1.1 2 2 3.3 2.7 1.3.6 2.8.9 4.4.9 2.7 0 4.8-.7 6.3-2.2 1.5-1.5 2.2-3.8 2.2-6.6v-16a.4.4 0 00-.4-.3zm27.7 0a.4.4 0 00-.3.2l-10.8 24a.4.4 0 00.4.5h4.5a.4.4 0 00.4-.2l2.3-5.3h11.4l2.3 5.3a.4.4 0 00.4.2h4.6a.4.4 0 00.4-.5l-10.8-24a.4.4 0 00-.4-.2zm20 0a.4.4 0 00-.5.4v24a.4.4 0 00.4.3h4.4a.4.4 0 00.5-.4v-15l12.5 15.3a.4.4 0 00.3.1h3.6a.4.4 0 00.4-.4v-24a.4.4 0 00-.4-.3h-4.4a.4.4 0 00-.4.4v15L779.7 156a.4.4 0 00-.3-.1zm36.7 0a.4.4 0 00-.3.2l-10.8 24a.4.4 0 00.4.5h4.5a.4.4 0 00.4-.2l2.3-5.3h11.4l2.3 5.3a.4.4 0 00.4.2h4.6a.4.4 0 00.4-.5l-10.8-24a.4.4 0 00-.4-.2zm31 0a.4.4 0 00-.4.4v24a.4.4 0 00.4.3h4.5a.4.4 0 00.4-.4v-6.5h5c2.1 0 4-.3 5.6-1a8.3 8.3 0 003.7-3.1c.9-1.4 1.3-3 1.3-4.8 0-1.8-.4-3.4-1.3-4.8a8.3 8.3 0 00-3.7-3c-1.6-.8-3.5-1.1-5.6-1.1zm32.4 0a.4.4 0 00-.3.2l-10.8 24a.4.4 0 00.3.5h4.6a.4.4 0 00.4-.2l2.3-5.3h11.4l2.3 5.3a.4.4 0 00.4.2h4.6a.4.4 0 00.4-.5l-10.8-24a.4.4 0 00-.4-.2zm16.4 0a.4.4 0 00-.4.5l8 24a.4.4 0 00.3.2h4.8a.4.4 0 00.3-.2l5.7-16.6 5.5 16.6a.4.4 0 00.4.2h4.7a.4.4 0 00.4-.2l8-24a.4.4 0 00-.4-.5h-4.3a.4.4 0 00-.4.2l-5.7 17.2-5.7-17.2a.4.4 0 00-.4-.2h-4a.4.4 0 00-.5.2l-5.8 17.1-5.5-17a.4.4 0 00-.4-.3zm43 0a.4.4 0 00-.5.4v10.5l-3.5 2.7a.4.4 0 00-.1.6l1.8 2.3a.4.4 0 00.6.1l1.2-1v8.7a.4.4 0 00.4.4h17a.4.4 0 00.4-.4v-3.7a.4.4 0 00-.4-.4H940v-8.5l5.3-4a.4.4 0 000-.6l-1.8-2.4a.4.4 0 00-.5 0l-3 2.3v-6.6a.4.4 0 00-.4-.4zm29.7 0a.4.4 0 00-.4.2l-10.8 24a.4.4 0 00.4.5h4.6a.4.4 0 00.4-.2l2.2-5.3H973l2.3 5.3a.4.4 0 00.3.2h4.7a.4.4 0 00.4-.5l-10.9-24a.4.4 0 00-.3-.2zm31 0a.4.4 0 00-.4.4v24a.4.4 0 00.4.3h4.4a.4.4 0 00.4-.4v-24a.4.4 0 00-.4-.3zm12.5 0a.4.4 0 00-.4.4v24a.4.4 0 00.4.3h4.5a.4.4 0 00.4-.4v-24a.4.4 0 00-.4-.3zM229 160.2h6c1.4 0 2.5.3 3.3.8.7.4 1 1 1 2s-.3 1.7-1 2.2a6 6 0 01-3.4.8H229zm230.5 0c1.5 0 2.9.4 4.1 1a8.1 8.1 0 013.9 7c0 1.6-.3 3-1 4.2a7.5 7.5 0 01-2.9 2.9c-1.2.6-2.6 1-4.1 1-1.5 0-2.9-.4-4.1-1a7.5 7.5 0 01-2.9-2.9c-.7-1.2-1-2.6-1-4.1 0-1.6.3-3 1-4.2a7.2 7.2 0 012.9-2.8c1.2-.7 2.6-1 4.1-1zm-126.5.2h5.4c1.7 0 3.2.4 4.5 1 1.3.7 2.2 1.6 2.9 2.7.7 1.2 1 2.6 1 4.2a8 8 0 01-1 4.1c-.7 1.2-1.7 2-3 2.7-1.2.7-2.7 1-4.4 1H333zm173.9 0h4.8c1.8 0 3.2.4 4.1 1.2 1 .7 1.4 1.8 1.4 3.2 0 1.4-.5 2.5-1.4 3.2-.9.8-2.3 1.2-4.1 1.2h-4.8zm341.5 0h4.8c1.9 0 3.2.4 4.1 1.2 1 .7 1.4 1.8 1.4 3.2 0 1.4-.4 2.5-1.4 3.2-.9.8-2.2 1.2-4.1 1.2h-4.8zM390 161.7l3.9 9.1h-7.8zm367.9 0l4 9.1H754zm56.7 0l4 9.1h-7.9zm63.4 0l3.9 9.1h-7.8zm89 0l4 9.1h-7.8zm-738 8.5h6.7c1.7 0 3 .3 3.7.8.7.5 1 1.2 1 2.3 0 1-.3 1.7-1 2.2-.8.6-2 .8-3.7.8H229zm480 4.2c-2.2.7 0-1-2.3.9-.6.6-1 1.4-1 2.3 0 1 .4 1.8 1 2.4.6.6 1.4.9 2.3.9.9 0 1.6-.3 2.3-1 .6-.5.9-1.3.9-2.3a3.2 3.2 0 00-3.2-3.2z"/>
</svg>